<?xml version="1.0" encoding="UTF-8"?>
<svg xmlns="http://www.w3.org/2000/svg" viewBox="0 0 30 20" width="24" height="18">
  <rect width="30" height="20" fill="#DE2910"/>
  <g transform="translate(5,5)" fill="#FFDE00">
    <polygon points="0,0 0,1 1,1 1,0" transform="rotate(0) translate(0, -6)"/>
    <polygon points="0,0 0,1 1,1 1,0" transform="rotate(72) translate(0, -6)"/>
    <polygon points="0,0 0,1 1,1 1,0" transform="rotate(144) translate(0, -6)"/>
    <polygon points="0,0 0,1 1,1 1,0" transform="rotate(216) translate(0, -6)"/>
    <polygon points="0,0 0,1 1,1 1,0" transform="rotate(288) translate(0, -6)"/>
  </g>
  <g transform="translate(10,5)">
    <polygon points="0,-3 0.6,0.9 -2.4,-1.5 2.4,-1.5 -0.6,0.9" fill="#FFDE00"/>
  </g>
</svg> 