<?xml version="1.0" encoding="UTF-8"?>
<svg xmlns="http://www.w3.org/2000/svg" viewBox="0 0 24 24" width="18" height="18">
  <path fill="#ffffff" d="M17.472,14.382c-0.297-0.149-1.758-0.867-2.03-0.967c-0.273-0.099-0.471-0.149-0.67,0.149c-0.197,0.297-0.767,0.966-0.94,1.164c-0.173,0.199-0.347,0.223-0.644,0.075c-0.297-0.15-1.255-0.463-2.39-1.475c-0.883-0.788-1.48-1.761-1.653-2.059c-0.173-0.297-0.018-0.458,0.13-0.606c0.134-0.133,0.298-0.347,0.446-0.521c0.149-0.172,0.198-0.296,0.298-0.495c0.099-0.198,0.05-0.372-0.025-0.521c-0.075-0.148-0.669-1.612-0.916-2.207c-0.242-0.579-0.487-0.501-0.669-0.51c-0.173-0.008-0.371-0.01-0.57-0.01c-0.198,0-0.52,0.074-0.792,0.372c-0.272,0.297-1.04,1.016-1.04,2.479c0,1.462,1.065,2.875,1.213,3.074c0.148,0.198,2.095,3.2,5.076,4.487c0.709,0.306,1.263,0.489,1.694,0.626c0.712,0.226,1.36,0.194,1.872,0.118c0.571-0.085,1.758-0.719,2.006-1.413c0.248-0.694,0.248-1.289,0.173-1.413c-0.074-0.124-0.272-0.198-0.57-0.347m-5.421,7.403h-0.004c-1.832-0.001-3.633-0.492-5.195-1.421l-0.373-0.221l-3.864,1.013l1.031-3.767l-0.243-0.387c-1.022-1.627-1.563-3.517-1.561-5.446c0.004-5.645,4.593-10.233,10.241-10.233c2.738,0.001,5.307,1.067,7.237,3c1.932,1.933,2.996,4.502,2.995,7.233c-0.005,5.645-4.594,10.232-10.241,10.233m8.884-18.459c-2.321-2.32-5.406-3.597-8.693-3.598c-6.788,0-12.31,5.519-12.315,12.307c-0.002,2.168,0.566,4.286,1.645,6.158L2,21.684l3.982-1.044c1.803,0.982,3.833,1.499,5.904,1.5h0.005c6.788,0,12.31-5.519,12.314-12.307c0.003-3.288-1.275-6.372-3.595-8.693"/>
</svg> 