<?xml version="1.0" encoding="UTF-8"?>
<svg xmlns="http://www.w3.org/2000/svg" viewBox="0 0 24 24" width="18" height="18">
  <path fill="#ffffff" d="M9.5,6.5c-0.8,0-1.5,0.7-1.5,1.5S8.7,9.5,9.5,9.5c0.8,0,1.5-0.7,1.5-1.5S10.3,6.5,9.5,6.5z M14.5,6.5c-0.8,0-1.5,0.7-1.5,1.5s0.7,1.5,1.5,1.5c0.8,0,1.5-0.7,1.5-1.5S15.3,6.5,14.5,6.5z M15,13.5c-0.6,0-1,0.4-1,1s0.4,1,1,1c0.6,0,1-0.4,1-1S15.6,13.5,15,13.5z M9,13.5c-0.6,0-1,0.4-1,1s0.4,1,1,1c0.6,0,1-0.4,1-1S9.6,13.5,9,13.5z M12,2C6.5,2,2,6.5,2,12s4.5,10,10,10s10-4.5,10-10S17.5,2,12,2z M8.1,18l-1.9-0.9l0.4-1l1.5,0.6c1-0.3,1.9-0.8,2.6-1.3c-1.5-0.7-2.6-2.1-2.6-3.9c0-2.5,2.4-4.5,5.4-4.5s5.4,2,5.4,4.5s-2.4,4.5-5.4,4.5h-0.5c-1.3,1-3,1.8-4.9,2z"/>
</svg> 